<svg width="30" height="33" viewBox="0 0 30 33" fill="none" xmlns="http://www.w3.org/2000/svg">
<path d="M4.47619 9L2 32H28L25.5238 9H4.47619Z" stroke="#F8FDFE" stroke-width="2" stroke-miterlimit="10" stroke-linecap="round"/>
<path d="M21 12C21 11.197 21 7.62653 21 6.82353C21 3.607 18.314 1 15 1C11.686 1 9 3.607 9 6.82353C9 7.62653 9 11.197 9 12" stroke="#F8FDFE" stroke-width="2" stroke-miterlimit="10" stroke-linecap="round"/>
<path d="M21 13C21.5523 13 22 12.5523 22 12C22 11.4477 21.5523 11 21 11C20.4477 11 20 11.4477 20 12C20 12.5523 20.4477 13 21 13Z" fill="#F8FDFE"/>
<path d="M9 13C9.55228 13 10 12.5523 10 12C10 11.4477 9.55228 11 9 11C8.44772 11 8 11.4477 8 12C8 12.5523 8.44772 13 9 13Z" fill="#F8FDFE"/>
</svg>
